<svg xmlns="http://www.w3.org/2000/svg" width="27.294" height="27.288" viewBox="0 0 27.294 27.288">
  <path id="Icon_awesome-instagram" data-name="Icon awesome-instagram" d="M13.645,8.885a7,7,0,1,0,7,7A6.985,6.985,0,0,0,13.645,8.885Zm0,11.545a4.549,4.549,0,1,1,4.549-4.549,4.557,4.557,0,0,1-4.549,4.549ZM22.559,8.6a1.632,1.632,0,1,1-1.632-1.632A1.628,1.628,0,0,1,22.559,8.6Zm4.634,1.656a8.076,8.076,0,0,0-2.2-5.718,8.129,8.129,0,0,0-5.718-2.2c-2.253-.128-9.006-.128-11.259,0a8.117,8.117,0,0,0-5.718,2.2,8.1,8.1,0,0,0-2.2,5.718c-.128,2.253-.128,9.006,0,11.259a8.076,8.076,0,0,0,2.2,5.718,8.139,8.139,0,0,0,5.718,2.2c2.253.128,9.006.128,11.259,0a8.076,8.076,0,0,0,5.718-2.2,8.129,8.129,0,0,0,2.2-5.718c.128-2.253.128-9,0-11.253Zm-2.911,13.67a4.6,4.6,0,0,1-2.594,2.594c-1.8.712-6.059.548-8.044.548s-6.253.158-8.044-.548a4.6,4.6,0,0,1-2.594-2.594c-.712-1.8-.548-6.059-.548-8.044S2.3,9.628,3.007,7.838A4.6,4.6,0,0,1,5.6,5.244C7.4,4.532,11.66,4.7,13.645,4.7s6.253-.158,8.044.548a4.6,4.6,0,0,1,2.594,2.594c.712,1.8.548,6.059.548,8.044S24.995,22.135,24.282,23.925Z" transform="translate(0.005 -2.238)" fill="#00355f"/>
</svg>
