<svg xmlns="http://www.w3.org/2000/svg" width="27.294" height="22.168" viewBox="0 0 27.294 22.168">
  <path id="Icon_awesome-twitter" data-name="Icon awesome-twitter" d="M24.489,8.905c.017.242.017.485.017.727A15.807,15.807,0,0,1,8.59,25.549,15.808,15.808,0,0,1,0,23.037a11.572,11.572,0,0,0,1.351.069A11.2,11.2,0,0,0,8.3,20.717a5.6,5.6,0,0,1-5.23-3.879,7.054,7.054,0,0,0,1.056.087,5.916,5.916,0,0,0,1.472-.19,5.6,5.6,0,0,1-4.486-5.49v-.069a5.634,5.634,0,0,0,2.529.71A5.6,5.6,0,0,1,1.9,4.4a15.9,15.9,0,0,0,11.534,5.854A6.315,6.315,0,0,1,13.3,8.975a5.6,5.6,0,0,1,9.681-3.827A11.013,11.013,0,0,0,26.532,3.8a5.579,5.579,0,0,1-2.459,3.083,11.214,11.214,0,0,0,3.221-.866A12.025,12.025,0,0,1,24.489,8.905Z" transform="translate(0 -3.381)" fill="#00355f"/>
</svg>
