<svg id="Icon_awesome-youtube" data-name="Icon awesome-youtube" xmlns="http://www.w3.org/2000/svg" width="27.294" height="19.191" viewBox="0 0 27.294 19.191">
  <path id="Icon_awesome-youtube-2" data-name="Icon awesome-youtube" d="M27.774,7.5a3.43,3.43,0,0,0-2.413-2.429C23.232,4.5,14.7,4.5,14.7,4.5s-8.535,0-10.664.574A3.43,3.43,0,0,0,1.62,7.5a35.977,35.977,0,0,0-.57,6.612,35.977,35.977,0,0,0,.57,6.612,3.378,3.378,0,0,0,2.413,2.39c2.129.574,10.664.574,10.664.574s8.535,0,10.664-.574a3.378,3.378,0,0,0,2.413-2.39,35.977,35.977,0,0,0,.57-6.612A35.977,35.977,0,0,0,27.774,7.5ZM11.906,18.173V10.057l7.134,4.058Z" transform="translate(-1.05 -4.5)" fill="#00355f"/>
</svg>
